<svg xmlns="http://www.w3.org/2000/svg" width="319" height="144" fill="none" viewBox="0 0 319 144">
  <g id="Group 2">
    <path id="puerta-tras-izq" stroke="#F9F8F8" stroke-width=".1" d="M66.05.05h82.9v21.9h-82.9z"/>
    <path id="puerta-tras-izq_2" stroke="#F9F8F8" stroke-width=".1" d="M22 .05h43.95v21.9H.05C.077 9.85 9.894.05 22 .05Z"/>
    <path id="puerta-tras-izq_3" stroke="#F9F8F8" stroke-width=".1" d="M297 143.95h-83.95v-21.9h105.9c-.027 12.1-9.844 21.9-21.95 21.9Z"/>
    <path id="puerta-del-izq" stroke="#F9F8F8" stroke-width=".1" d="M149.05.05h40.9v21.9h-40.9z"/>
    <path id="retrovisor-izq" stroke="#F9F8F8" stroke-width=".1" d="M190.05.05h22.9v21.9h-22.9z"/>
    <path id="paragolpes-tras" stroke="#F9F8F8" stroke-width=".1" d="M.05 22.05h15.9v99.9H.05z"/>
    <path id="porton-tras" stroke="#F9F8F8" stroke-width=".1" d="M16.05 22.05h49.9v99.9h-49.9v-99.9Z"/>
    <path id="techo" stroke="#F9F8F8" stroke-width=".1" d="M66.05 22.05h146.9v99.9H66.05z"/>
    <path id="capo-del" stroke="#F9F8F8" stroke-width=".1" d="M213.05 22.05h83.9v99.9h-83.9z"/>
    <path id="paragolpes-del" stroke="#F9F8F8" stroke-width=".1" d="M297.05 22.05h21.9v99.9h-21.9z"/>
    <path id="puerta-tras-der" stroke="#F9F8F8" stroke-width=".1" d="M66.05 122.05h82.9v21.9h-82.9z"/>
    <path id="puerta-tras-der_2" stroke="#F9F8F8" stroke-width=".1" d="M22 143.95c-12.106 0-21.923-9.8-21.95-21.9h65.9v21.9H22Z"/>
    <path id="puerta-tras-der_3" stroke="#F9F8F8" stroke-width=".1" d="M297 .05c12.106 0 21.923 9.8 21.95 21.9h-105.9V.05H297Z"/>
    <path id="puerta-del-der" stroke="#F9F8F8" stroke-width=".1" d="M149.05 122.05h40.9v21.9h-40.9z"/>
    <path id="retrovisor-izq_2" stroke="#F9F8F8" stroke-width=".1" d="M190.05 122.05h22.9v21.9h-22.9v-21.9Z"/>
  </g>
</svg>

<svg xmlns="http://www.w3.org/2000/svg" class="icon icon-tabler icon-tabler-123" width="36" height="36" viewBox="0 0 24 24" stroke-width="1.5" stroke="#a905b6" fill="none" stroke-linecap="round" stroke-linejoin="round">
  <path stroke="none" d="M0 0h24v24H0z" fill="none"/>
  <path d="M3 10l2 -2v8" />
  <path d="M9 8h3a1 1 0 0 1 1 1v2a1 1 0 0 1 -1 1h-2a1 1 0 0 0 -1 1v2a1 1 0 0 0 1 1h3" />
  <path d="M17 8h2.5a1.5 1.5 0 0 1 1.5 1.5v1a1.5 1.5 0 0 1 -1.5 1.5h-1.5h1.5a1.5 1.5 0 0 1 1.5 1.5v1a1.5 1.5 0 0 1 -1.5 1.5h-2.5" />
</svg>