<svg xmlns="http://www.w3.org/2000/svg" width="319" height="144" fill="none">
  <g id="Group 2">
    <path id="puerta-tras-izq" stroke="#F9F8F8" stroke-width=".1" d="M66.05.05h82.9v21.9h-82.9z" vector-effect="non-scaling-stroke"/>
    <path id="puerta-tras-izq_2" stroke="#F9F8F8" stroke-width=".1" d="M22 .05h43.95v21.9H.05C.077 9.85 9.894.05 22 .05Z" vector-effect="non-scaling-stroke"/>
    <path id="puerta-tras-izq_3" stroke="#F9F8F8" stroke-width=".1" d="M297 143.95h-83.95v-21.9h105.9c-.027 12.1-9.844 21.9-21.95 21.9Z" vector-effect="non-scaling-stroke"/>
    <path id="puerta-del-izq" stroke="#F9F8F8" stroke-width=".1" d="M149.05.05h40.9v21.9h-40.9z" vector-effect="non-scaling-stroke"/>
    <path id="retrovisor-izq" stroke="#F9F8F8" stroke-width=".1" d="M190.05.05h22.9v21.9h-22.9z" vector-effect="non-scaling-stroke"/>
    <path id="paragolpes-tras" stroke="#F9F8F8" stroke-width=".1" d="M.05 22.05h15.9v99.9H.05z" vector-effect="non-scaling-stroke"/>
    <path id="porton-tras" stroke="#F9F8F8" stroke-width=".1" d="M16.05 22.05h49.9v99.9h-49.9v-99.9Z" vector-effect="non-scaling-stroke"/>
    <path id="techo" stroke="#F9F8F8" stroke-width=".1" d="M66.05 22.05h146.9v99.9H66.05z" vector-effect="non-scaling-stroke"/>
    <path id="capo-del" stroke="#F9F8F8" stroke-width=".1" d="M213.05 22.05h83.9v99.9h-83.9z" vector-effect="non-scaling-stroke"/>
    <path id="paragolpes-del" stroke="#F9F8F8" stroke-width=".1" d="M297.05 22.05h21.9v99.9h-21.9z" vector-effect="non-scaling-stroke"/>
    <path id="puerta-tras-der" stroke="#F9F8F8" stroke-width=".1" d="M66.05 122.05h82.9v21.9h-82.9z" vector-effect="non-scaling-stroke"/>
    <path id="puerta-tras-der_2" stroke="#F9F8F8" stroke-width=".1" d="M22 143.95c-12.106 0-21.923-9.8-21.95-21.9h65.9v21.9H22Z" vector-effect="non-scaling-stroke"/>
    <path id="puerta-tras-der_3" stroke="#F9F8F8" stroke-width=".1" d="M297 .05c12.106 0 21.923 9.8 21.95 21.9h-105.9V.05H297Z" vector-effect="non-scaling-stroke"/>
    <path id="puerta-del-der" stroke="#F9F8F8" stroke-width=".1" d="M149.05 122.05h40.9v21.9h-40.9z" vector-effect="non-scaling-stroke"/>
    <path id="retrovisor-izq_2" stroke="#F9F8F8" stroke-width=".1" d="M190.05 122.05h22.9v21.9h-22.9v-21.9Z" vector-effect="non-scaling-stroke"/>
  </g>
</svg>
